<?xml version="1.0" encoding="UTF-8" standalone="no"?>
<!-- Created with Inkscape (http://www.inkscape.org/) -->

<svg
   xmlns:dc="http://purl.org/dc/elements/1.1/"
   xmlns:cc="http://creativecommons.org/ns#"
   xmlns:rdf="http://www.w3.org/1999/02/22-rdf-syntax-ns#"
   xmlns:svg="http://www.w3.org/2000/svg"
   xmlns="http://www.w3.org/2000/svg"
   xmlns:sodipodi="http://sodipodi.sourceforge.net/DTD/sodipodi-0.dtd"
   xmlns:inkscape="http://www.inkscape.org/namespaces/inkscape"
   id="svg3612"
   version="1.1"
   inkscape:version="0.91 r13725"
   xml:space="preserve"
   width="37.5"
   height="37.5"
   viewBox="0 0 37.5 37.5"
   sodipodi:docname="icon-joy.svg"><metadata
     id="metadata3618"><rdf:RDF><cc:Work
         rdf:about=""><dc:format>image/svg+xml</dc:format><dc:type
           rdf:resource="http://purl.org/dc/dcmitype/StillImage" /><dc:title></dc:title></cc:Work></rdf:RDF></metadata><defs
     id="defs3616"><clipPath
       clipPathUnits="userSpaceOnUse"
       id="clipPath3626"><path
         d="M 0,30 30,30 30,0 0,0 0,30 Z"
         id="path3628"
         inkscape:connector-curvature="0" /></clipPath></defs><sodipodi:namedview
     pagecolor="#ffffff"
     bordercolor="#666666"
     borderopacity="1"
     objecttolerance="10"
     gridtolerance="10"
     guidetolerance="10"
     inkscape:pageopacity="0"
     inkscape:pageshadow="2"
     inkscape:window-width="711"
     inkscape:window-height="480"
     id="namedview3614"
     showgrid="false"
     inkscape:zoom="6.2933333"
     inkscape:cx="18.75"
     inkscape:cy="18.75"
     inkscape:window-x="0"
     inkscape:window-y="22"
     inkscape:window-maximized="0"
     inkscape:current-layer="g3620" /><g
     id="g3620"
     inkscape:groupmode="layer"
     inkscape:label="icon-joy"
     transform="matrix(1.25,0,0,-1.25,0,37.5)"><g
       id="g3622"><g
         id="g3624"
         clip-path="url(#clipPath3626)"><g
           id="g3630"
           transform="translate(15,26.5)"><path
             d="m 0,0 c -6.341,0 -11.5,-5.159 -11.5,-11.5 0,-6.341 5.159,-11.5 11.5,-11.5 6.341,0 11.5,5.159 11.5,11.5 C 11.5,-5.159 6.341,0 0,0 m 0,-1.643 c 5.444,0 9.857,-4.413 9.857,-9.857 0,-5.444 -4.413,-9.857 -9.857,-9.857 -5.444,0 -9.857,4.413 -9.857,9.857 0,5.444 4.413,9.857 9.857,9.857"
             style="fill:#f8aa41;fill-opacity:1;fill-rule:nonzero;stroke:none"
             id="path3632"
             inkscape:connector-curvature="0" /></g><g
           id="g3634"
           transform="translate(12.6241,16.6192)"><path
             d="m 0,0 c -0.354,0 -0.68,0.23 -0.787,0.586 -0.105,0.352 -0.419,0.588 -0.78,0.588 -0.361,0 -0.674,-0.236 -0.78,-0.588 -0.13,-0.435 -0.588,-0.681 -1.022,-0.551 -0.435,0.13 -0.681,0.588 -0.551,1.022 0.315,1.053 1.261,1.76 2.353,1.76 1.093,0 2.038,-0.708 2.354,-1.76 C 0.917,0.623 0.671,0.165 0.236,0.035 0.158,0.011 0.078,0 0,0"
             style="fill:#f8aa41;fill-opacity:1;fill-rule:nonzero;stroke:none"
             id="path3636"
             inkscape:connector-curvature="0" /></g><g
           id="g3638"
           transform="translate(20.5085,16.6192)"><path
             d="m 0,0 c -0.354,0 -0.68,0.23 -0.787,0.586 -0.105,0.351 -0.418,0.588 -0.779,0.588 -0.361,0 -0.675,-0.237 -0.78,-0.588 -0.131,-0.435 -0.589,-0.681 -1.023,-0.551 -0.435,0.13 -0.681,0.588 -0.551,1.023 0.316,1.052 1.262,1.759 2.354,1.759 1.092,0 2.038,-0.707 2.353,-1.76 C 0.917,0.623 0.671,0.165 0.236,0.035 0.158,0.011 0.078,0 0,0"
             style="fill:#f8aa41;fill-opacity:1;fill-rule:nonzero;stroke:none"
             id="path3640"
             inkscape:connector-curvature="0" /></g><g
           id="g3642"
           transform="translate(21.7127,13.3072)"><path
             d="m 0,0 -13.426,0 c -0.697,0 -1.176,-0.705 -0.917,-1.352 1.209,-3.029 4.169,-5.169 7.63,-5.169 3.461,0 6.421,2.14 7.63,5.169 C 1.176,-0.705 0.697,0 0,0 m -1.048,-1.643 c -1.168,-1.993 -3.298,-3.236 -5.665,-3.236 -2.366,0 -4.497,1.243 -5.665,3.236 l 11.33,0"
             style="fill:#f8aa41;fill-opacity:1;fill-rule:nonzero;stroke:none"
             id="path3644"
             inkscape:connector-curvature="0" /></g></g></g></g></svg>