<?xml version="1.0" encoding="UTF-8" standalone="no"?>
<!-- Created with Inkscape (http://www.inkscape.org/) -->

<svg
   xmlns:dc="http://purl.org/dc/elements/1.1/"
   xmlns:cc="http://creativecommons.org/ns#"
   xmlns:rdf="http://www.w3.org/1999/02/22-rdf-syntax-ns#"
   xmlns:svg="http://www.w3.org/2000/svg"
   xmlns="http://www.w3.org/2000/svg"
   xmlns:sodipodi="http://sodipodi.sourceforge.net/DTD/sodipodi-0.dtd"
   xmlns:inkscape="http://www.inkscape.org/namespaces/inkscape"
   id="svg3714"
   version="1.1"
   inkscape:version="0.91 r13725"
   xml:space="preserve"
   width="37.5"
   height="37.5"
   viewBox="0 0 37.5 37.5"
   sodipodi:docname="icon-tentative.svg"><metadata
     id="metadata3720"><rdf:RDF><cc:Work
         rdf:about=""><dc:format>image/svg+xml</dc:format><dc:type
           rdf:resource="http://purl.org/dc/dcmitype/StillImage" /><dc:title></dc:title></cc:Work></rdf:RDF></metadata><defs
     id="defs3718"><clipPath
       clipPathUnits="userSpaceOnUse"
       id="clipPath3728"><path
         d="M 0,30 30,30 30,0 0,0 0,30 Z"
         id="path3730"
         inkscape:connector-curvature="0" /></clipPath></defs><sodipodi:namedview
     pagecolor="#ffffff"
     bordercolor="#666666"
     borderopacity="1"
     objecttolerance="10"
     gridtolerance="10"
     guidetolerance="10"
     inkscape:pageopacity="0"
     inkscape:pageshadow="2"
     inkscape:window-width="711"
     inkscape:window-height="480"
     id="namedview3716"
     showgrid="false"
     inkscape:zoom="6.2933333"
     inkscape:cx="18.75"
     inkscape:cy="18.75"
     inkscape:window-x="0"
     inkscape:window-y="22"
     inkscape:window-maximized="0"
     inkscape:current-layer="g3722" /><g
     id="g3722"
     inkscape:groupmode="layer"
     inkscape:label="icon-tentative"
     transform="matrix(1.25,0,0,-1.25,0,37.5)"><g
       id="g3724"><g
         id="g3726"
         clip-path="url(#clipPath3728)"><g
           id="g3732"
           transform="translate(15,26.5)"><path
             d="m 0,0 c -6.341,0 -11.5,-5.159 -11.5,-11.5 0,-6.341 5.159,-11.5 11.5,-11.5 6.341,0 11.5,5.159 11.5,11.5 C 11.5,-5.159 6.341,0 0,0 m 0,-1.643 c 5.454,0 9.857,-4.403 9.857,-9.857 0,-5.454 -4.403,-9.857 -9.857,-9.857 -5.454,0 -9.857,4.403 -9.857,9.857 0,5.454 4.403,9.857 9.857,9.857"
             style="fill:#989898;fill-opacity:1;fill-rule:nonzero;stroke:none"
             id="path3734"
             inkscape:connector-curvature="0" /></g><g
           id="g3736"
           transform="translate(18.9429,18.6143)"><path
             d="M 0,0 C 0.907,0 1.643,-0.736 1.643,-1.643 1.643,-2.55 0.907,-3.286 0,-3.286 c -0.907,0 -1.643,0.736 -1.643,1.643 C -1.643,-0.736 -0.907,0 0,0"
             style="fill:#989898;fill-opacity:1;fill-rule:nonzero;stroke:none"
             id="path3738"
             inkscape:connector-curvature="0" /></g><g
           id="g3740"
           transform="translate(11.0572,18.6143)"><path
             d="M 0,0 C 0.907,0 1.643,-0.736 1.643,-1.643 1.643,-2.55 0.907,-3.286 0,-3.286 c -0.907,0 -1.643,0.736 -1.643,1.643 C -1.643,-0.736 -0.907,0 0,0"
             style="fill:#989898;fill-opacity:1;fill-rule:nonzero;stroke:none"
             id="path3742"
             inkscape:connector-curvature="0" /></g><g
           id="g3744"
           transform="translate(19.2057,9.3157)"><path
             d="m 0,0 -0.131,0 -8.412,1.413 c -0.46,0.066 -0.756,0.493 -0.657,0.953 0.066,0.46 0.493,0.755 0.953,0.657 L 0.164,1.61 C 0.624,1.544 0.92,1.117 0.821,0.657 0.756,0.263 0.394,0 0,0"
             style="fill:#989898;fill-opacity:1;fill-rule:nonzero;stroke:none"
             id="path3746"
             inkscape:connector-curvature="0" /></g></g></g></g></svg>