<?xml version="1.0" encoding="UTF-8" standalone="no"?>
<!-- Created with Inkscape (http://www.inkscape.org/) -->

<svg
   xmlns:dc="http://purl.org/dc/elements/1.1/"
   xmlns:cc="http://creativecommons.org/ns#"
   xmlns:rdf="http://www.w3.org/1999/02/22-rdf-syntax-ns#"
   xmlns:svg="http://www.w3.org/2000/svg"
   xmlns="http://www.w3.org/2000/svg"
   xmlns:sodipodi="http://sodipodi.sourceforge.net/DTD/sodipodi-0.dtd"
   xmlns:inkscape="http://www.inkscape.org/namespaces/inkscape"
   id="svg2"
   version="1.1"
   inkscape:version="0.91 r13725"
   xml:space="preserve"
   width="37.5"
   height="37.5"
   viewBox="0 0 37.5 37.5"
   sodipodi:docname="icon-analytical.svg"><metadata
     id="metadata8"><rdf:RDF><cc:Work
         rdf:about=""><dc:format>image/svg+xml</dc:format><dc:type
           rdf:resource="http://purl.org/dc/dcmitype/StillImage" /><dc:title></dc:title></cc:Work></rdf:RDF></metadata><defs
     id="defs6"><clipPath
       clipPathUnits="userSpaceOnUse"
       id="clipPath16"><path
         d="M 0,30 30,30 30,0 0,0 0,30 Z"
         id="path18"
         inkscape:connector-curvature="0" /></clipPath></defs><sodipodi:namedview
     pagecolor="#ffffff"
     bordercolor="#666666"
     borderopacity="1"
     objecttolerance="10"
     gridtolerance="10"
     guidetolerance="10"
     inkscape:pageopacity="0"
     inkscape:pageshadow="2"
     inkscape:window-width="711"
     inkscape:window-height="480"
     id="namedview4"
     showgrid="false"
     inkscape:zoom="6.2933333"
     inkscape:cx="18.75"
     inkscape:cy="18.75"
     inkscape:window-x="0"
     inkscape:window-y="22"
     inkscape:window-maximized="0"
     inkscape:current-layer="g10" /><g
     id="g10"
     inkscape:groupmode="layer"
     inkscape:label="icon-analytical"
     transform="matrix(1.25,0,0,-1.25,0,37.5)"><g
       id="g12"><g
         id="g14"
         clip-path="url(#clipPath16)"><g
           id="g20"
           transform="translate(15,5.1429)"><path
             d="m 0,0 c -5.444,0 -9.857,4.413 -9.857,9.857 0,5.444 4.413,9.857 9.857,9.857 5.444,0 9.857,-4.413 9.857,-9.857 C 9.857,4.413 5.444,0 0,0 m 0,21.357 c -6.341,0 -11.5,-5.159 -11.5,-11.5 0,-6.341 5.159,-11.5 11.5,-11.5 6.341,0 11.5,5.159 11.5,11.5 0,6.341 -5.159,11.5 -11.5,11.5"
             style="fill:#989898;fill-opacity:1;fill-rule:nonzero;stroke:none"
             id="path22"
             inkscape:connector-curvature="0" /></g><g
           id="g24"
           transform="translate(19.5215,11.8375)"><path
             d="m 0,0 c -1.249,-1.102 -2.855,-1.71 -4.521,-1.71 -1.667,0 -3.273,0.608 -4.522,1.71 -0.34,0.3 -0.859,0.268 -1.159,-0.072 -0.3,-0.34 -0.268,-0.859 0.072,-1.159 1.549,-1.368 3.541,-2.122 5.609,-2.122 2.067,0 4.059,0.754 5.608,2.122 0.34,0.3 0.373,0.819 0.072,1.159 C 0.859,0.268 0.339,0.301 0,0"
             style="fill:#989898;fill-opacity:1;fill-rule:nonzero;stroke:none"
             id="path26"
             inkscape:connector-curvature="0" /></g><g
           id="g28"
           transform="translate(18.9422,15.1653)"><path
             d="m 0,0 c -0.996,0 -1.807,0.811 -1.807,1.807 0,0.997 0.811,1.807 1.807,1.807 0.996,0 1.807,-0.81 1.807,-1.807 C 1.807,0.811 0.996,0 0,0 m -7.885,0 c -0.997,0 -1.807,0.811 -1.807,1.807 0,0.997 0.81,1.807 1.807,1.807 0.997,0 1.807,-0.81 1.807,-1.807 C -6.078,0.811 -6.888,0 -7.885,0 m 12.129,2.628 -0.897,0 C 2.977,4.134 1.619,5.257 0,5.257 c -1.366,0 -2.545,-0.8 -3.104,-1.954 -0.553,0.204 -1.124,0.204 -1.677,0 -0.559,1.154 -1.739,1.954 -3.104,1.954 -1.619,0 -2.977,-1.123 -3.348,-2.629 l -0.815,0 c -0.454,0 -0.822,-0.367 -0.822,-0.821 0,-0.454 0.368,-0.822 0.822,-0.822 l 0.815,0 c 0.37,-1.506 1.729,-2.628 3.348,-2.628 1.848,0 3.357,1.462 3.441,3.29 0.346,0.221 0.656,0.222 1.002,0 0.084,-1.828 1.593,-3.29 3.441,-3.29 1.619,0 2.978,1.122 3.347,2.628 l 0.897,0 c 0.454,0 0.822,0.368 0.822,0.822 0,0.454 -0.367,0.821 -0.821,0.821"
             style="fill:#989898;fill-opacity:1;fill-rule:nonzero;stroke:none"
             id="path30"
             inkscape:connector-curvature="0" /></g></g></g></g></svg>