<?xml version="1.0" encoding="UTF-8" standalone="no"?>
<!-- Created with Inkscape (http://www.inkscape.org/) -->

<svg
   xmlns:dc="http://purl.org/dc/elements/1.1/"
   xmlns:cc="http://creativecommons.org/ns#"
   xmlns:rdf="http://www.w3.org/1999/02/22-rdf-syntax-ns#"
   xmlns:svg="http://www.w3.org/2000/svg"
   xmlns="http://www.w3.org/2000/svg"
   xmlns:sodipodi="http://sodipodi.sourceforge.net/DTD/sodipodi-0.dtd"
   xmlns:inkscape="http://www.inkscape.org/namespaces/inkscape"
   id="svg3506"
   version="1.1"
   inkscape:version="0.91 r13725"
   xml:space="preserve"
   width="37.5"
   height="37.5"
   viewBox="0 0 37.5 37.5"
   sodipodi:docname="icon-emotional-range.svg"><metadata
     id="metadata3512"><rdf:RDF><cc:Work
         rdf:about=""><dc:format>image/svg+xml</dc:format><dc:type
           rdf:resource="http://purl.org/dc/dcmitype/StillImage" /><dc:title></dc:title></cc:Work></rdf:RDF></metadata><defs
     id="defs3510"><clipPath
       clipPathUnits="userSpaceOnUse"
       id="clipPath3520"><path
         d="M 0,30 30,30 30,0 0,0 0,30 Z"
         id="path3522"
         inkscape:connector-curvature="0" /></clipPath></defs><sodipodi:namedview
     pagecolor="#ffffff"
     bordercolor="#666666"
     borderopacity="1"
     objecttolerance="10"
     gridtolerance="10"
     guidetolerance="10"
     inkscape:pageopacity="0"
     inkscape:pageshadow="2"
     inkscape:window-width="711"
     inkscape:window-height="480"
     id="namedview3508"
     showgrid="false"
     inkscape:zoom="6.2933333"
     inkscape:cx="18.75"
     inkscape:cy="18.75"
     inkscape:window-x="0"
     inkscape:window-y="22"
     inkscape:window-maximized="0"
     inkscape:current-layer="g3514" /><g
     id="g3514"
     inkscape:groupmode="layer"
     inkscape:label="icon-emotional-range"
     transform="matrix(1.25,0,0,-1.25,0,37.5)"><g
       id="g3516"><g
         id="g3518"
         clip-path="url(#clipPath3520)"><g
           id="g3524"
           transform="translate(12.9061,17.5749)"><path
             d="m 0,0 -2.373,1.314 c -0.397,0.22 -0.896,0.077 -1.116,-0.32 -0.22,-0.397 -0.076,-0.897 0.321,-1.117 l 1.075,-0.596 -1.075,-0.595 c -0.397,-0.22 -0.541,-0.72 -0.321,-1.117 0.15,-0.271 0.43,-0.423 0.719,-0.423 0.135,0 0.271,0.033 0.397,0.103 L 0,-1.437 c 0.002,0.001 0.002,0.002 0.004,0.003 0.129,0.072 0.24,0.179 0.317,0.318 C 0.54,-0.72 0.397,-0.22 0,0"
             style="fill:#adc836;fill-opacity:1;fill-rule:nonzero;stroke:none"
             id="path3526"
             inkscape:connector-curvature="0" /></g><g
           id="g3528"
           transform="translate(20.1747,16.2606)"><path
             d="M 0,0 -1.075,0.596 0,1.191 c 0.397,0.22 0.54,0.72 0.321,1.117 -0.22,0.397 -0.72,0.54 -1.116,0.321 L -3.168,1.314 C -3.172,1.312 -3.174,1.308 -3.178,1.306 -3.303,1.234 -3.414,1.13 -3.489,0.994 -3.709,0.597 -3.565,0.097 -3.168,-0.123 l 2.373,-1.314 c 0.126,-0.07 0.262,-0.103 0.397,-0.103 0.289,0 0.569,0.153 0.719,0.424 C 0.54,-0.72 0.397,-0.22 0,0"
             style="fill:#adc836;fill-opacity:1;fill-rule:nonzero;stroke:none"
             id="path3530"
             inkscape:connector-curvature="0" /></g><g
           id="g3532"
           transform="translate(15,13.3573)"><path
             d="m 0,0 c -2.178,0 -4.108,-1.06 -5.302,-2.693 -0.491,-0.671 -0.004,-1.579 0.785,-1.579 0.049,0 0.098,0.003 0.149,0.01 l 8.737,0 c 0.05,-0.007 0.1,-0.01 0.148,-0.01 0.789,0 1.276,0.908 0.785,1.579 C 4.108,-1.061 2.178,0 0,0 m 0,-1.643 c 1.067,0 2.098,-0.351 2.938,-0.976 l -5.877,0 c 0.841,0.625 1.872,0.976 2.939,0.976"
             style="fill:#adc836;fill-opacity:1;fill-rule:nonzero;stroke:none"
             id="path3534"
             inkscape:connector-curvature="0" /></g><g
           id="g3536"
           transform="translate(15,4.4593)"><path
             d="m 0,0 c -5.444,0 -9.857,4.413 -9.857,9.857 0,1.544 0.358,3.01 0.992,4.314 l -0.19,6.161 3.496,-2.336 0.003,0 c 0.473,0.325 0.976,0.611 1.505,0.844 1.235,0.562 2.609,0.874 4.051,0.874 1.442,0 2.816,-0.312 4.051,-0.874 0.529,-0.233 1.032,-0.519 1.505,-0.841 l 1.456,0.969 2.04,1.364 L 8.954,17.069 8.95,17.073 8.862,14.178 C 9.499,12.873 9.857,11.405 9.857,9.857 9.857,4.413 5.444,0 0,0 m 10.514,14.516 0.23,7.36 c 0.01,0.309 -0.154,0.595 -0.424,0.746 -0.266,0.148 -0.598,0.135 -0.854,-0.036 L 5.52,19.944 C 3.88,20.845 1.998,21.357 0,21.357 c -1.998,0 -3.88,-0.512 -5.52,-1.413 l -3.949,2.642 c -0.257,0.171 -0.585,0.184 -0.855,0.036 -0.269,-0.151 -0.433,-0.437 -0.424,-0.746 l 0.23,-7.37 0,-0.003 C -11.148,13.08 -11.5,11.51 -11.5,9.857 c 0,-6.341 5.159,-11.5 11.5,-11.5 6.341,0 11.5,5.159 11.5,11.5 0,1.659 -0.352,3.233 -0.986,4.659"
             style="fill:#adc836;fill-opacity:1;fill-rule:nonzero;stroke:none"
             id="path3538"
             inkscape:connector-curvature="0" /></g></g></g></g></svg>