<?xml version="1.0" encoding="UTF-8" standalone="no"?>
<!-- Created with Inkscape (http://www.inkscape.org/) -->

<svg
   xmlns:dc="http://purl.org/dc/elements/1.1/"
   xmlns:cc="http://creativecommons.org/ns#"
   xmlns:rdf="http://www.w3.org/1999/02/22-rdf-syntax-ns#"
   xmlns:svg="http://www.w3.org/2000/svg"
   xmlns="http://www.w3.org/2000/svg"
   xmlns:sodipodi="http://sodipodi.sourceforge.net/DTD/sodipodi-0.dtd"
   xmlns:inkscape="http://www.inkscape.org/namespaces/inkscape"
   id="svg3570"
   version="1.1"
   inkscape:version="0.91 r13725"
   xml:space="preserve"
   width="37.5"
   height="37.5"
   viewBox="0 0 37.5 37.5"
   sodipodi:docname="icon-fear.svg"><metadata
     id="metadata3576"><rdf:RDF><cc:Work
         rdf:about=""><dc:format>image/svg+xml</dc:format><dc:type
           rdf:resource="http://purl.org/dc/dcmitype/StillImage" /><dc:title></dc:title></cc:Work></rdf:RDF></metadata><defs
     id="defs3574"><clipPath
       clipPathUnits="userSpaceOnUse"
       id="clipPath3584"><path
         d="M 0,30 30,30 30,0 0,0 0,30 Z"
         id="path3586"
         inkscape:connector-curvature="0" /></clipPath></defs><sodipodi:namedview
     pagecolor="#ffffff"
     bordercolor="#666666"
     borderopacity="1"
     objecttolerance="10"
     gridtolerance="10"
     guidetolerance="10"
     inkscape:pageopacity="0"
     inkscape:pageshadow="2"
     inkscape:window-width="711"
     inkscape:window-height="480"
     id="namedview3572"
     showgrid="false"
     inkscape:zoom="6.2933333"
     inkscape:cx="18.75"
     inkscape:cy="18.75"
     inkscape:window-x="0"
     inkscape:window-y="22"
     inkscape:window-maximized="0"
     inkscape:current-layer="g3578" /><g
     id="g3578"
     inkscape:groupmode="layer"
     inkscape:label="icon-fear"
     transform="matrix(1.25,0,0,-1.25,0,37.5)"><g
       id="g3580"><g
         id="g3582"
         clip-path="url(#clipPath3584)"><g
           id="g3588"
           transform="translate(15,26.5)"><path
             d="m 0,0 c -6.341,0 -11.5,-5.159 -11.5,-11.5 0,-6.341 5.159,-11.5 11.5,-11.5 6.341,0 11.5,5.159 11.5,11.5 C 11.5,-5.159 6.341,0 0,0 m 0,-1.643 c 5.444,0 9.857,-4.413 9.857,-9.857 0,-5.444 -4.413,-9.857 -9.857,-9.857 -5.444,0 -9.857,4.413 -9.857,9.857 0,5.444 4.413,9.857 9.857,9.857"
             style="fill:#adc836;fill-opacity:1;fill-rule:nonzero;stroke:none"
             id="path3590"
             inkscape:connector-curvature="0" /></g><g
           id="g3592"
           transform="translate(20.1579,8.5787)"><path
             d="M 0,0 C -1.007,0 -1.542,0.583 -1.897,0.97 -2.217,1.319 -2.326,1.407 -2.583,1.407 -2.84,1.407 -2.941,1.324 -3.266,0.97 -3.62,0.584 -4.154,0 -5.161,0 -6.167,0 -6.702,0.584 -7.055,0.97 -7.38,1.324 -7.482,1.407 -7.739,1.407 -7.995,1.407 -8.097,1.324 -8.422,0.97 -8.775,0.584 -9.31,0 -10.316,0 c -0.454,0 -0.822,0.368 -0.822,0.821 0,0.454 0.368,0.822 0.822,0.822 0.256,0 0.358,0.083 0.683,0.437 0.353,0.386 0.888,0.97 1.894,0.97 1.006,0 1.541,-0.584 1.895,-0.97 0.324,-0.354 0.426,-0.437 0.683,-0.437 0.257,0 0.359,0.083 0.684,0.437 0.353,0.386 0.888,0.97 1.894,0.97 1.007,0 1.542,-0.583 1.897,-0.969 C -0.366,1.732 -0.257,1.643 0,1.643 0.454,1.643 0.821,1.275 0.821,0.821 0.821,0.368 0.454,0 0,0"
             style="fill:#adc836;fill-opacity:1;fill-rule:nonzero;stroke:none"
             id="path3594"
             inkscape:connector-curvature="0" /></g><g
           id="g3596"
           transform="translate(19.3365,20.2575)"><path
             d="m 0,0 c -1.902,0 -3.45,-1.548 -3.45,-3.45 0,-1.902 1.548,-3.45 3.45,-3.45 1.902,0 3.45,1.548 3.45,3.45 C 3.45,-1.548 1.902,0 0,0 m 0,-1.643 c 0.998,0 1.807,-0.809 1.807,-1.807 0,-0.998 -0.809,-1.807 -1.807,-1.807 -0.998,0 -1.807,0.809 -1.807,1.807 0,0.998 0.809,1.807 1.807,1.807"
             style="fill:#adc836;fill-opacity:1;fill-rule:nonzero;stroke:none"
             id="path3598"
             inkscape:connector-curvature="0" /></g><g
           id="g3600"
           transform="translate(10.6635,20.2575)"><path
             d="m 0,0 c -1.902,0 -3.45,-1.548 -3.45,-3.45 0,-1.902 1.548,-3.45 3.45,-3.45 1.902,0 3.45,1.548 3.45,3.45 C 3.45,-1.548 1.902,0 0,0 m 0,-1.643 c 0.998,0 1.807,-0.809 1.807,-1.807 0,-0.998 -0.809,-1.807 -1.807,-1.807 -0.998,0 -1.807,0.809 -1.807,1.807 0,0.998 0.809,1.807 1.807,1.807"
             style="fill:#adc836;fill-opacity:1;fill-rule:nonzero;stroke:none"
             id="path3602"
             inkscape:connector-curvature="0" /></g><g
           id="g3604"
           transform="translate(10.6635,17.6289)"><path
             d="m 0,0 c 0.454,0 0.821,-0.368 0.821,-0.821 0,-0.454 -0.367,-0.822 -0.821,-0.822 -0.454,0 -0.821,0.368 -0.821,0.822 C -0.821,-0.368 -0.454,0 0,0"
             style="fill:#adc836;fill-opacity:1;fill-rule:nonzero;stroke:none"
             id="path3606"
             inkscape:connector-curvature="0" /></g><g
           id="g3608"
           transform="translate(19.3365,17.6289)"><path
             d="m 0,0 c 0.454,0 0.821,-0.368 0.821,-0.821 0,-0.454 -0.367,-0.822 -0.821,-0.822 -0.454,0 -0.821,0.368 -0.821,0.822 C -0.821,-0.368 -0.454,0 0,0"
             style="fill:#adc836;fill-opacity:1;fill-rule:nonzero;stroke:none"
             id="path3610"
             inkscape:connector-curvature="0" /></g></g></g></g></svg>