<?xml version="1.0" encoding="UTF-8" standalone="no"?>
<!-- Created with Inkscape (http://www.inkscape.org/) -->

<svg
   xmlns:dc="http://purl.org/dc/elements/1.1/"
   xmlns:cc="http://creativecommons.org/ns#"
   xmlns:rdf="http://www.w3.org/1999/02/22-rdf-syntax-ns#"
   xmlns:svg="http://www.w3.org/2000/svg"
   xmlns="http://www.w3.org/2000/svg"
   xmlns:sodipodi="http://sodipodi.sourceforge.net/DTD/sodipodi-0.dtd"
   xmlns:inkscape="http://www.inkscape.org/namespaces/inkscape"
   id="svg3426"
   version="1.1"
   inkscape:version="0.91 r13725"
   xml:space="preserve"
   width="37.5"
   height="37.5"
   viewBox="0 0 37.5 37.5"
   sodipodi:docname="icon-conscientiousness.svg"><metadata
     id="metadata3432"><rdf:RDF><cc:Work
         rdf:about=""><dc:format>image/svg+xml</dc:format><dc:type
           rdf:resource="http://purl.org/dc/dcmitype/StillImage" /><dc:title></dc:title></cc:Work></rdf:RDF></metadata><defs
     id="defs3430"><clipPath
       clipPathUnits="userSpaceOnUse"
       id="clipPath3440"><path
         d="M 0,30 30,30 30,0 0,0 0,30 Z"
         id="path3442"
         inkscape:connector-curvature="0" /></clipPath></defs><sodipodi:namedview
     pagecolor="#ffffff"
     bordercolor="#666666"
     borderopacity="1"
     objecttolerance="10"
     gridtolerance="10"
     guidetolerance="10"
     inkscape:pageopacity="0"
     inkscape:pageshadow="2"
     inkscape:window-width="711"
     inkscape:window-height="480"
     id="namedview3428"
     showgrid="false"
     inkscape:zoom="6.2933333"
     inkscape:cx="18.75"
     inkscape:cy="18.75"
     inkscape:window-x="0"
     inkscape:window-y="22"
     inkscape:window-maximized="0"
     inkscape:current-layer="g3434" /><g
     id="g3434"
     inkscape:groupmode="layer"
     inkscape:label="icon-conscientiousness"
     transform="matrix(1.25,0,0,-1.25,0,37.5)"><g
       id="g3436"><g
         id="g3438"
         clip-path="url(#clipPath3440)"><g
           id="g3444"
           transform="translate(18.9422,17.4686)"><path
             d="M 0,0 C 0.907,0 1.643,-0.736 1.643,-1.643 1.643,-2.55 0.907,-3.286 0,-3.286 c -0.907,0 -1.643,0.736 -1.643,1.643 C -1.643,-0.736 -0.907,0 0,0"
             style="fill:#adc836;fill-opacity:1;fill-rule:nonzero;stroke:none"
             id="path3446"
             inkscape:connector-curvature="0" /></g><g
           id="g3448"
           transform="translate(11.0578,17.4686)"><path
             d="M 0,0 C 0.907,0 1.643,-0.736 1.643,-1.643 1.643,-2.55 0.907,-3.286 0,-3.286 c -0.907,0 -1.643,0.736 -1.643,1.643 C -1.643,-0.736 -0.907,0 0,0"
             style="fill:#adc836;fill-opacity:1;fill-rule:nonzero;stroke:none"
             id="path3450"
             inkscape:connector-curvature="0" /></g><g
           id="g3452"
           transform="translate(22.9633,22.1349)"><path
             d="m 0,0 c -0.428,-0.27 -0.96,-0.523 -1.618,-0.744 2.147,-1.808 3.512,-4.514 3.512,-7.541 0,-5.444 -4.413,-9.857 -9.857,-9.857 -5.444,0 -9.857,4.413 -9.857,9.857 0,3.027 1.365,5.733 3.512,7.541 -0.658,0.221 -1.19,0.474 -1.619,0.744 -2.177,-2.094 -3.536,-5.033 -3.536,-8.285 0,-6.341 5.159,-11.5 11.5,-11.5 6.341,0 11.5,5.159 11.5,11.5 C 3.537,-5.033 2.177,-2.094 0,0"
             style="fill:#adc836;fill-opacity:1;fill-rule:nonzero;stroke:none"
             id="path3454"
             inkscape:connector-curvature="0" /></g><g
           id="g3456"
           transform="translate(8.5061,24.8571)"><path
             d="m 0,0 c 0.56,-0.461 2.918,-1.15 6.494,-1.15 3.576,0 5.934,0.689 6.494,1.15 C 12.428,0.461 10.07,1.15 6.494,1.15 2.918,1.15 0.56,0.461 0,0 m 6.494,-2.793 c -0.841,0 -8.214,0.078 -8.214,2.793 0,2.715 7.373,2.793 8.214,2.793 0.841,0 8.214,-0.078 8.214,-2.793 0,-2.715 -7.373,-2.793 -8.214,-2.793"
             style="fill:#adc836;fill-opacity:1;fill-rule:nonzero;stroke:none"
             id="path3458"
             inkscape:connector-curvature="0" /></g><g
           id="g3460"
           transform="translate(15,7.3347)"><path
             d="m 0,0 c -2.067,0 -4.059,0.753 -5.608,2.121 -0.34,0.301 -0.373,0.819 -0.073,1.159 0.301,0.341 0.82,0.373 1.16,0.073 1.249,-1.103 2.854,-1.71 4.521,-1.71 1.667,0 3.272,0.607 4.521,1.71 0.34,0.3 0.859,0.268 1.16,-0.073 C 5.981,2.94 5.948,2.422 5.608,2.121 4.059,0.753 2.067,0 0,0"
             style="fill:#adc836;fill-opacity:1;fill-rule:nonzero;stroke:none"
             id="path3462"
             inkscape:connector-curvature="0" /></g></g></g></g></svg>