<?xml version="1.0" encoding="UTF-8" standalone="no"?>
<!-- Created with Inkscape (http://www.inkscape.org/) -->

<svg
   xmlns:dc="http://purl.org/dc/elements/1.1/"
   xmlns:cc="http://creativecommons.org/ns#"
   xmlns:rdf="http://www.w3.org/1999/02/22-rdf-syntax-ns#"
   xmlns:svg="http://www.w3.org/2000/svg"
   xmlns="http://www.w3.org/2000/svg"
   xmlns:sodipodi="http://sodipodi.sourceforge.net/DTD/sodipodi-0.dtd"
   xmlns:inkscape="http://www.inkscape.org/namespaces/inkscape"
   id="svg2"
   version="1.1"
   inkscape:version="0.91 r13725"
   xml:space="preserve"
   width="37.5"
   height="37.5"
   viewBox="0 0 37.5 37.5"
   sodipodi:docname="icon-anger.svg"><metadata
     id="metadata8"><rdf:RDF><cc:Work
         rdf:about=""><dc:format>image/svg+xml</dc:format><dc:type
           rdf:resource="http://purl.org/dc/dcmitype/StillImage" /><dc:title></dc:title></cc:Work></rdf:RDF></metadata><defs
     id="defs6"><clipPath
       clipPathUnits="userSpaceOnUse"
       id="clipPath16"><path
         d="M 0,30 30,30 30,0 0,0 0,30 Z"
         id="path18"
         inkscape:connector-curvature="0" /></clipPath></defs><sodipodi:namedview
     pagecolor="#ffffff"
     bordercolor="#666666"
     borderopacity="1"
     objecttolerance="10"
     gridtolerance="10"
     guidetolerance="10"
     inkscape:pageopacity="0"
     inkscape:pageshadow="2"
     inkscape:window-width="711"
     inkscape:window-height="480"
     id="namedview4"
     showgrid="false"
     inkscape:zoom="6.2933333"
     inkscape:cx="18.75"
     inkscape:cy="18.75"
     inkscape:window-x="0"
     inkscape:window-y="22"
     inkscape:window-maximized="0"
     inkscape:current-layer="g10" /><g
     id="g10"
     inkscape:groupmode="layer"
     inkscape:label="icon-anger"
     transform="matrix(1.25,0,0,-1.25,0,37.5)"><g
       id="g12"><g
         id="g14"
         clip-path="url(#clipPath16)"><g
           id="g20"
           transform="translate(15,26.5)"><path
             d="m 0,0 c -6.341,0 -11.5,-5.159 -11.5,-11.5 0,-6.341 5.159,-11.5 11.5,-11.5 6.341,0 11.5,5.159 11.5,11.5 C 11.5,-5.159 6.341,0 0,0 m 0,-1.643 c 5.444,0 9.857,-4.413 9.857,-9.857 0,-5.444 -4.413,-9.857 -9.857,-9.857 -5.444,0 -9.857,4.413 -9.857,9.857 0,5.444 4.413,9.857 9.857,9.857"
             style="fill:#ef3d47;fill-opacity:1;fill-rule:nonzero;stroke:none"
             id="path22"
             inkscape:connector-curvature="0" /></g><g
           id="g24"
           transform="translate(12.747,16.0909)"><path
             d="m 0,0 c -0.07,0 -0.142,0.009 -0.213,0.028 l -3.669,0.983 c -0.438,0.117 -0.698,0.568 -0.581,1.006 0.117,0.438 0.568,0.699 1.006,0.581 L 0.212,1.615 C 0.65,1.498 0.91,1.047 0.793,0.609 0.695,0.242 0.363,0 0,0"
             style="fill:#ef3d47;fill-opacity:1;fill-rule:nonzero;stroke:none"
             id="path26"
             inkscape:connector-curvature="0" /></g><g
           id="g28"
           transform="translate(17.253,16.0909)"><path
             d="M 0,0 C -0.363,0 -0.695,0.242 -0.793,0.609 -0.91,1.047 -0.65,1.498 -0.212,1.615 L 3.457,2.598 C 3.895,2.714 4.346,2.456 4.463,2.017 4.581,1.579 4.32,1.129 3.882,1.011 L 0.213,0.028 C 0.142,0.009 0.07,0 0,0"
             style="fill:#ef3d47;fill-opacity:1;fill-rule:nonzero;stroke:none"
             id="path30"
             inkscape:connector-curvature="0" /></g><g
           id="g32"
           transform="translate(20.0649,9.4711)"><path
             d="m 0,0 c -0.193,0 -0.387,0.068 -0.543,0.206 -1.249,1.102 -2.855,1.709 -4.522,1.709 -1.666,0 -3.272,-0.607 -4.521,-1.709 -0.34,-0.301 -0.859,-0.268 -1.159,0.072 -0.301,0.34 -0.268,0.859 0.072,1.159 1.549,1.368 3.541,2.121 5.608,2.121 2.068,0 4.06,-0.753 5.609,-2.121 C 0.885,1.137 0.916,0.618 0.616,0.278 0.454,0.094 0.227,0 0,0"
             style="fill:#ef3d47;fill-opacity:1;fill-rule:nonzero;stroke:none"
             id="path34"
             inkscape:connector-curvature="0" /></g></g></g></g></svg>