<?xml version="1.0" encoding="UTF-8" standalone="no"?>
<!-- Created with Inkscape (http://www.inkscape.org/) -->

<svg
   xmlns:dc="http://purl.org/dc/elements/1.1/"
   xmlns:cc="http://creativecommons.org/ns#"
   xmlns:rdf="http://www.w3.org/1999/02/22-rdf-syntax-ns#"
   xmlns:svg="http://www.w3.org/2000/svg"
   xmlns="http://www.w3.org/2000/svg"
   xmlns:sodipodi="http://sodipodi.sourceforge.net/DTD/sodipodi-0.dtd"
   xmlns:inkscape="http://www.inkscape.org/namespaces/inkscape"
   id="svg3680"
   version="1.1"
   inkscape:version="0.91 r13725"
   xml:space="preserve"
   width="37.5"
   height="37.5"
   viewBox="0 0 37.5 37.5"
   sodipodi:docname="icon-sadness.svg"><metadata
     id="metadata3686"><rdf:RDF><cc:Work
         rdf:about=""><dc:format>image/svg+xml</dc:format><dc:type
           rdf:resource="http://purl.org/dc/dcmitype/StillImage" /><dc:title></dc:title></cc:Work></rdf:RDF></metadata><defs
     id="defs3684"><clipPath
       clipPathUnits="userSpaceOnUse"
       id="clipPath3694"><path
         d="M 0,30 30,30 30,0 0,0 0,30 Z"
         id="path3696"
         inkscape:connector-curvature="0" /></clipPath></defs><sodipodi:namedview
     pagecolor="#ffffff"
     bordercolor="#666666"
     borderopacity="1"
     objecttolerance="10"
     gridtolerance="10"
     guidetolerance="10"
     inkscape:pageopacity="0"
     inkscape:pageshadow="2"
     inkscape:window-width="711"
     inkscape:window-height="480"
     id="namedview3682"
     showgrid="false"
     inkscape:zoom="6.2933333"
     inkscape:cx="18.75"
     inkscape:cy="18.75"
     inkscape:window-x="0"
     inkscape:window-y="22"
     inkscape:window-maximized="0"
     inkscape:current-layer="g3688" /><g
     id="g3688"
     inkscape:groupmode="layer"
     inkscape:label="icon-sadness"
     transform="matrix(1.25,0,0,-1.25,0,37.5)"><g
       id="g3690"><g
         id="g3692"
         clip-path="url(#clipPath3694)"><g
           id="g3698"
           transform="translate(15,26.5)"><path
             d="m 0,0 c -6.341,0 -11.5,-5.159 -11.5,-11.5 0,-6.341 5.159,-11.5 11.5,-11.5 6.341,0 11.5,5.159 11.5,11.5 C 11.5,-5.159 6.341,0 0,0 m 0,-1.643 c 5.444,0 9.857,-4.413 9.857,-9.857 0,-5.444 -4.413,-9.857 -9.857,-9.857 -5.444,0 -9.857,4.413 -9.857,9.857 0,5.444 4.413,9.857 9.857,9.857"
             style="fill:#599ac8;fill-opacity:1;fill-rule:nonzero;stroke:none"
             id="path3700"
             inkscape:connector-curvature="0" /></g><g
           id="g3702"
           transform="translate(18.9429,18.6146)"><path
             d="M 0,0 C 0.907,0 1.643,-0.736 1.643,-1.643 1.643,-2.55 0.907,-3.286 0,-3.286 c -0.907,0 -1.643,0.736 -1.643,1.643 C -1.643,-0.736 -0.907,0 0,0"
             style="fill:#599ac8;fill-opacity:1;fill-rule:nonzero;stroke:none"
             id="path3704"
             inkscape:connector-curvature="0" /></g><g
           id="g3706"
           transform="translate(11.0578,18.6146)"><path
             d="M 0,0 C 0.907,0 1.643,-0.736 1.643,-1.643 1.643,-2.55 0.907,-3.286 0,-3.286 c -0.907,0 -1.643,0.736 -1.643,1.643 C -1.643,-0.736 -0.907,0 0,0"
             style="fill:#599ac8;fill-opacity:1;fill-rule:nonzero;stroke:none"
             id="path3708"
             inkscape:connector-curvature="0" /></g><g
           id="g3710"
           transform="translate(20.0646,9.4711)"><path
             d="m 0,0 c -0.193,0 -0.387,0.068 -0.543,0.206 -1.249,1.102 -2.855,1.71 -4.522,1.71 -1.666,0 -3.272,-0.608 -4.521,-1.71 -0.34,-0.301 -0.859,-0.268 -1.159,0.072 -0.301,0.34 -0.268,0.859 0.072,1.159 1.549,1.368 3.541,2.121 5.608,2.121 2.068,0 4.06,-0.753 5.609,-2.121 C 0.884,1.137 0.916,0.618 0.616,0.278 0.454,0.094 0.227,0 0,0"
             style="fill:#599ac8;fill-opacity:1;fill-rule:nonzero;stroke:none"
             id="path3712"
             inkscape:connector-curvature="0" /></g></g></g></g></svg>