<?xml version="1.0" encoding="UTF-8" standalone="no"?>
<!-- Created with Inkscape (http://www.inkscape.org/) -->

<svg
   xmlns:dc="http://purl.org/dc/elements/1.1/"
   xmlns:cc="http://creativecommons.org/ns#"
   xmlns:rdf="http://www.w3.org/1999/02/22-rdf-syntax-ns#"
   xmlns:svg="http://www.w3.org/2000/svg"
   xmlns="http://www.w3.org/2000/svg"
   xmlns:sodipodi="http://sodipodi.sourceforge.net/DTD/sodipodi-0.dtd"
   xmlns:inkscape="http://www.inkscape.org/namespaces/inkscape"
   id="svg3646"
   version="1.1"
   inkscape:version="0.91 r13725"
   xml:space="preserve"
   width="37.5"
   height="37.5"
   viewBox="0 0 37.5 37.5"
   sodipodi:docname="icon-openness.svg"><metadata
     id="metadata3652"><rdf:RDF><cc:Work
         rdf:about=""><dc:format>image/svg+xml</dc:format><dc:type
           rdf:resource="http://purl.org/dc/dcmitype/StillImage" /><dc:title></dc:title></cc:Work></rdf:RDF></metadata><defs
     id="defs3650"><clipPath
       clipPathUnits="userSpaceOnUse"
       id="clipPath3660"><path
         d="M 0,30 30,30 30,0 0,0 0,30 Z"
         id="path3662"
         inkscape:connector-curvature="0" /></clipPath></defs><sodipodi:namedview
     pagecolor="#ffffff"
     bordercolor="#666666"
     borderopacity="1"
     objecttolerance="10"
     gridtolerance="10"
     guidetolerance="10"
     inkscape:pageopacity="0"
     inkscape:pageshadow="2"
     inkscape:window-width="711"
     inkscape:window-height="480"
     id="namedview3648"
     showgrid="false"
     inkscape:zoom="6.2933333"
     inkscape:cx="18.75"
     inkscape:cy="18.75"
     inkscape:window-x="0"
     inkscape:window-y="22"
     inkscape:window-maximized="0"
     inkscape:current-layer="g3654" /><g
     id="g3654"
     inkscape:groupmode="layer"
     inkscape:label="icon-openness"
     transform="matrix(1.25,0,0,-1.25,0,37.5)"><g
       id="g3656"><g
         id="g3658"
         clip-path="url(#clipPath3660)"><g
           id="g3664"
           transform="translate(15,26.5)"><path
             d="m 0,0 c -6.341,0 -11.5,-5.159 -11.5,-11.5 0,-6.341 5.159,-11.5 11.5,-11.5 6.341,0 11.5,5.159 11.5,11.5 C 11.5,-5.159 6.341,0 0,0 m 0,-1.643 c 5.444,0 9.857,-4.413 9.857,-9.857 0,-5.444 -4.413,-9.857 -9.857,-9.857 -5.444,0 -9.857,4.413 -9.857,9.857 0,5.444 4.413,9.857 9.857,9.857"
             style="fill:#adc836;fill-opacity:1;fill-rule:nonzero;stroke:none"
             id="path3666"
             inkscape:connector-curvature="0" /></g><g
           id="g3668"
           transform="translate(18.8939,18.6186)"><path
             d="M 0,0 C 0.907,0 1.643,-0.736 1.643,-1.643 1.643,-2.55 0.907,-3.286 0,-3.286 c -0.907,0 -1.643,0.736 -1.643,1.643 C -1.643,-0.736 -0.907,0 0,0"
             style="fill:#adc836;fill-opacity:1;fill-rule:nonzero;stroke:none"
             id="path3670"
             inkscape:connector-curvature="0" /></g><g
           id="g3672"
           transform="translate(11.0095,18.6186)"><path
             d="M 0,0 C 0.907,0 1.643,-0.736 1.643,-1.643 1.643,-2.55 0.907,-3.286 0,-3.286 c -0.907,0 -1.643,0.736 -1.643,1.643 C -1.643,-0.736 -0.907,0 0,0"
             style="fill:#adc836;fill-opacity:1;fill-rule:nonzero;stroke:none"
             id="path3674"
             inkscape:connector-curvature="0" /></g><g
           id="g3676"
           transform="translate(20.937,13.4429)"><path
             d="m 0,0 -11.971,0 c -0.697,0 -1.187,-0.71 -0.915,-1.353 1.136,-2.689 3.798,-4.576 6.901,-4.576 3.103,0 5.764,1.887 6.901,4.576 C 1.187,-0.711 0.698,0 0,0 m -1.092,-1.643 c -1.068,-1.633 -2.894,-2.643 -4.893,-2.643 -2,0 -3.826,1.01 -4.893,2.643 l 9.786,0"
             style="fill:#adc836;fill-opacity:1;fill-rule:nonzero;stroke:none"
             id="path3678"
             inkscape:connector-curvature="0" /></g></g></g></g></svg>