<?xml version="1.0" encoding="UTF-8" standalone="no"?>
<!-- Created with Inkscape (http://www.inkscape.org/) -->

<svg
   xmlns:dc="http://purl.org/dc/elements/1.1/"
   xmlns:cc="http://creativecommons.org/ns#"
   xmlns:rdf="http://www.w3.org/1999/02/22-rdf-syntax-ns#"
   xmlns:svg="http://www.w3.org/2000/svg"
   xmlns="http://www.w3.org/2000/svg"
   xmlns:sodipodi="http://sodipodi.sourceforge.net/DTD/sodipodi-0.dtd"
   xmlns:inkscape="http://www.inkscape.org/namespaces/inkscape"
   id="svg3464"
   version="1.1"
   inkscape:version="0.91 r13725"
   xml:space="preserve"
   width="37.5"
   height="37.5"
   viewBox="0 0 37.5 37.5"
   sodipodi:docname="icon-disgust.svg"><metadata
     id="metadata3470"><rdf:RDF><cc:Work
         rdf:about=""><dc:format>image/svg+xml</dc:format><dc:type
           rdf:resource="http://purl.org/dc/dcmitype/StillImage" /><dc:title></dc:title></cc:Work></rdf:RDF></metadata><defs
     id="defs3468"><clipPath
       clipPathUnits="userSpaceOnUse"
       id="clipPath3478"><path
         d="M 0,30 30,30 30,0 0,0 0,30 Z"
         id="path3480"
         inkscape:connector-curvature="0" /></clipPath></defs><sodipodi:namedview
     pagecolor="#ffffff"
     bordercolor="#666666"
     borderopacity="1"
     objecttolerance="10"
     gridtolerance="10"
     guidetolerance="10"
     inkscape:pageopacity="0"
     inkscape:pageshadow="2"
     inkscape:window-width="711"
     inkscape:window-height="480"
     id="namedview3466"
     showgrid="false"
     inkscape:zoom="6.2933333"
     inkscape:cx="18.75"
     inkscape:cy="18.75"
     inkscape:window-x="0"
     inkscape:window-y="22"
     inkscape:window-maximized="0"
     inkscape:current-layer="g3472" /><g
     id="g3472"
     inkscape:groupmode="layer"
     inkscape:label="icon-disgust"
     transform="matrix(1.25,0,0,-1.25,0,37.5)"><g
       id="g3474"><g
         id="g3476"
         clip-path="url(#clipPath3478)"><g
           id="g3482"
           transform="translate(15,26.4999)"><path
             d="m 0,0 c -6.341,0 -11.5,-5.159 -11.5,-11.5 0,-6.341 5.159,-11.5 11.5,-11.5 6.341,0 11.5,5.159 11.5,11.5 C 11.5,-5.159 6.341,0 0,0 m 0,-1.643 c 5.454,0 9.857,-4.403 9.857,-9.857 0,-5.454 -4.403,-9.857 -9.857,-9.857 -5.454,0 -9.857,4.403 -9.857,9.857 0,5.454 4.403,9.857 9.857,9.857"
             style="fill:#8e4a9d;fill-opacity:1;fill-rule:nonzero;stroke:none"
             id="path3484"
             inkscape:connector-curvature="0" /></g><g
           id="g3486"
           transform="translate(18.9429,18.6142)"><path
             d="M 0,0 C 0.907,0 1.643,-0.736 1.643,-1.643 1.643,-2.55 0.907,-3.286 0,-3.286 c -0.907,0 -1.643,0.736 -1.643,1.643 C -1.643,-0.736 -0.907,0 0,0"
             style="fill:#8e4a9d;fill-opacity:1;fill-rule:nonzero;stroke:none"
             id="path3488"
             inkscape:connector-curvature="0" /></g><g
           id="g3490"
           transform="translate(11.0571,18.6142)"><path
             d="M 0,0 C 0.907,0 1.643,-0.736 1.643,-1.643 1.643,-2.55 0.907,-3.286 0,-3.286 c -0.907,0 -1.643,0.736 -1.643,1.643 C -1.643,-0.736 -0.907,0 0,0"
             style="fill:#8e4a9d;fill-opacity:1;fill-rule:nonzero;stroke:none"
             id="path3492"
             inkscape:connector-curvature="0" /></g><g
           id="g3494"
           transform="translate(18.9429,18.6142)"><path
             d="M 0,0 C 0.907,0 1.643,-0.736 1.643,-1.643 1.643,-2.55 0.907,-3.286 0,-3.286 c -0.907,0 -1.643,0.736 -1.643,1.643 C -1.643,-0.736 -0.907,0 0,0"
             style="fill:#8e4a9d;fill-opacity:1;fill-rule:nonzero;stroke:none"
             id="path3496"
             inkscape:connector-curvature="0" /></g><g
           id="g3498"
           transform="translate(11.0571,18.6142)"><path
             d="M 0,0 C 0.907,0 1.643,-0.736 1.643,-1.643 1.643,-2.55 0.907,-3.286 0,-3.286 c -0.907,0 -1.643,0.736 -1.643,1.643 C -1.643,-0.736 -0.907,0 0,0"
             style="fill:#8e4a9d;fill-opacity:1;fill-rule:nonzero;stroke:none"
             id="path3500"
             inkscape:connector-curvature="0" /></g><g
           id="g3502"
           transform="translate(17.7271,9.5127)"><path
             d="m 0,0 c -1.544,0 -2.99,0.92 -3.056,0.953 0,0 -1.15,0.69 -2.201,0.69 -1.052,0 -2.169,-0.69 -2.202,-0.69 -0.394,-0.23 -0.887,-0.132 -1.117,0.263 -0.23,0.394 -0.131,0.887 0.263,1.117 0.066,0.033 1.544,0.953 3.056,0.953 1.511,0 2.99,-0.92 3.056,-0.953 0,0 1.15,-0.69 2.201,-0.69 1.051,0 2.169,0.69 2.201,0.69 C 2.596,2.563 3.089,2.464 3.319,2.07 3.549,1.676 3.45,1.183 3.056,0.953 2.99,0.92 1.544,0 0,0"
             style="fill:#8e4a9d;fill-opacity:1;fill-rule:nonzero;stroke:none"
             id="path3504"
             inkscape:connector-curvature="0" /></g></g></g></g></svg>