<?xml version="1.0" encoding="UTF-8" standalone="no"?>
<!-- Created with Inkscape (http://www.inkscape.org/) -->

<svg
   xmlns:dc="http://purl.org/dc/elements/1.1/"
   xmlns:cc="http://creativecommons.org/ns#"
   xmlns:rdf="http://www.w3.org/1999/02/22-rdf-syntax-ns#"
   xmlns:svg="http://www.w3.org/2000/svg"
   xmlns="http://www.w3.org/2000/svg"
   xmlns:sodipodi="http://sodipodi.sourceforge.net/DTD/sodipodi-0.dtd"
   xmlns:inkscape="http://www.inkscape.org/namespaces/inkscape"
   id="svg3540"
   version="1.1"
   inkscape:version="0.91 r13725"
   xml:space="preserve"
   width="37.5"
   height="37.5"
   viewBox="0 0 37.5 37.5"
   sodipodi:docname="icon-extraversion.svg"><metadata
     id="metadata3546"><rdf:RDF><cc:Work
         rdf:about=""><dc:format>image/svg+xml</dc:format><dc:type
           rdf:resource="http://purl.org/dc/dcmitype/StillImage" /><dc:title></dc:title></cc:Work></rdf:RDF></metadata><defs
     id="defs3544"><clipPath
       clipPathUnits="userSpaceOnUse"
       id="clipPath3554"><path
         d="M 0,30 30,30 30,0 0,0 0,30 Z"
         id="path3556"
         inkscape:connector-curvature="0" /></clipPath></defs><sodipodi:namedview
     pagecolor="#ffffff"
     bordercolor="#666666"
     borderopacity="1"
     objecttolerance="10"
     gridtolerance="10"
     guidetolerance="10"
     inkscape:pageopacity="0"
     inkscape:pageshadow="2"
     inkscape:window-width="711"
     inkscape:window-height="480"
     id="namedview3542"
     showgrid="false"
     inkscape:zoom="6.2933333"
     inkscape:cx="18.75"
     inkscape:cy="18.75"
     inkscape:window-x="0"
     inkscape:window-y="22"
     inkscape:window-maximized="0"
     inkscape:current-layer="g3548" /><g
     id="g3548"
     inkscape:groupmode="layer"
     inkscape:label="icon-extraversion"
     transform="matrix(1.25,0,0,-1.25,0,37.5)"><g
       id="g3550"><g
         id="g3552"
         clip-path="url(#clipPath3554)"><g
           id="g3558"
           transform="translate(15,26.5)"><path
             d="m 0,0 c -6.341,0 -11.5,-5.159 -11.5,-11.5 0,-6.341 5.159,-11.5 11.5,-11.5 6.341,0 11.5,5.159 11.5,11.5 C 11.5,-5.159 6.341,0 0,0 m 0,-1.643 c 5.444,0 9.857,-4.413 9.857,-9.857 0,-5.444 -4.413,-9.857 -9.857,-9.857 -5.444,0 -9.857,4.413 -9.857,9.857 0,5.444 4.413,9.857 9.857,9.857"
             style="fill:#adc836;fill-opacity:1;fill-rule:nonzero;stroke:none"
             id="path3560"
             inkscape:connector-curvature="0" /></g><g
           id="g3562"
           transform="translate(20.9853,13.439)"><path
             d="m 0,0 -11.971,0 c -0.697,0 -1.187,-0.71 -0.915,-1.353 1.136,-2.689 3.798,-4.576 6.901,-4.576 3.103,0 5.764,1.887 6.901,4.576 C 1.187,-0.711 0.698,0 0,0 m -1.092,-1.643 c -1.068,-1.633 -2.894,-2.643 -4.893,-2.643 -2,0 -3.826,1.01 -4.893,2.643 l 9.786,0"
             style="fill:#adc836;fill-opacity:1;fill-rule:nonzero;stroke:none"
             id="path3564"
             inkscape:connector-curvature="0" /></g><g
           id="g3566"
           transform="translate(20.4362,16.7109)"><path
             d="M 0,0 -3.074,1.211 0,2.422 C 0.422,2.588 0.63,3.065 0.463,3.487 0.297,3.909 -0.18,4.116 -0.602,3.95 L -5.315,2.094 -10.028,3.95 C -10.45,4.115 -10.927,3.909 -11.094,3.487 -11.26,3.065 -11.052,2.588 -10.63,2.422 L -7.556,1.211 -10.63,0 c -0.422,-0.166 -0.63,-0.643 -0.464,-1.065 0.128,-0.324 0.437,-0.521 0.765,-0.521 0.1,0 0.202,0.019 0.301,0.057 l 4.713,1.857 4.713,-1.857 c 0.099,-0.038 0.2,-0.057 0.301,-0.057 0.327,0 0.637,0.197 0.764,0.521 C 0.63,-0.643 0.422,-0.166 0,0"
             style="fill:#adc836;fill-opacity:1;fill-rule:nonzero;stroke:none"
             id="path3568"
             inkscape:connector-curvature="0" /></g></g></g></g></svg>