<?xml version="1.0" encoding="UTF-8" standalone="no"?>
<!-- Created with Inkscape (http://www.inkscape.org/) -->

<svg
   xmlns:dc="http://purl.org/dc/elements/1.1/"
   xmlns:cc="http://creativecommons.org/ns#"
   xmlns:rdf="http://www.w3.org/1999/02/22-rdf-syntax-ns#"
   xmlns:svg="http://www.w3.org/2000/svg"
   xmlns="http://www.w3.org/2000/svg"
   xmlns:sodipodi="http://sodipodi.sourceforge.net/DTD/sodipodi-0.dtd"
   xmlns:inkscape="http://www.inkscape.org/namespaces/inkscape"
   id="svg3392"
   version="1.1"
   inkscape:version="0.91 r13725"
   xml:space="preserve"
   width="37.5"
   height="37.5"
   viewBox="0 0 37.5 37.5"
   sodipodi:docname="icon-confident.svg"><metadata
     id="metadata3398"><rdf:RDF><cc:Work
         rdf:about=""><dc:format>image/svg+xml</dc:format><dc:type
           rdf:resource="http://purl.org/dc/dcmitype/StillImage" /><dc:title></dc:title></cc:Work></rdf:RDF></metadata><defs
     id="defs3396"><clipPath
       clipPathUnits="userSpaceOnUse"
       id="clipPath3406"><path
         d="M 0,30 30,30 30,0 0,0 0,30 Z"
         id="path3408"
         inkscape:connector-curvature="0" /></clipPath></defs><sodipodi:namedview
     pagecolor="#ffffff"
     bordercolor="#666666"
     borderopacity="1"
     objecttolerance="10"
     gridtolerance="10"
     guidetolerance="10"
     inkscape:pageopacity="0"
     inkscape:pageshadow="2"
     inkscape:window-width="711"
     inkscape:window-height="480"
     id="namedview3394"
     showgrid="false"
     inkscape:zoom="6.2933333"
     inkscape:cx="18.75"
     inkscape:cy="18.75"
     inkscape:window-x="0"
     inkscape:window-y="22"
     inkscape:window-maximized="0"
     inkscape:current-layer="g3400" /><g
     id="g3400"
     inkscape:groupmode="layer"
     inkscape:label="icon-confident"
     transform="matrix(1.25,0,0,-1.25,0,37.5)"><g
       id="g3402"><g
         id="g3404"
         clip-path="url(#clipPath3406)"><g
           id="g3410"
           transform="translate(15,26.5)"><path
             d="m 0,0 c -6.341,0 -11.5,-5.159 -11.5,-11.5 0,-6.341 5.159,-11.5 11.5,-11.5 6.341,0 11.5,5.159 11.5,11.5 C 11.5,-5.159 6.341,0 0,0 m 0,-1.643 c 5.444,0 9.857,-4.413 9.857,-9.857 0,-5.444 -4.413,-9.857 -9.857,-9.857 -5.444,0 -9.857,4.413 -9.857,9.857 0,5.444 4.413,9.857 9.857,9.857"
             style="fill:#989898;fill-opacity:1;fill-rule:nonzero;stroke:none"
             id="path3412"
             inkscape:connector-curvature="0" /></g><g
           id="g3414"
           transform="translate(11.0578,15.6332)"><path
             d="m 0,0 c -1.092,0 -2.038,0.707 -2.354,1.759 -0.13,0.435 0.117,0.893 0.551,1.023 C -1.368,2.912 -0.91,2.665 -0.78,2.231 -0.675,1.879 -0.361,1.643 0,1.643 0.361,1.643 0.674,1.879 0.78,2.231 0.91,2.665 1.368,2.912 1.803,2.782 2.237,2.652 2.484,2.194 2.354,1.759 2.038,0.707 1.092,0 0,0"
             style="fill:#989898;fill-opacity:1;fill-rule:nonzero;stroke:none"
             id="path3416"
             inkscape:connector-curvature="0" /></g><g
           id="g3418"
           transform="translate(18.9422,15.6332)"><path
             d="m 0,0 c -1.092,0 -2.038,0.707 -2.353,1.759 -0.13,0.435 0.116,0.893 0.551,1.023 0.433,0.13 0.893,-0.117 1.022,-0.551 C -0.674,1.879 -0.361,1.643 0,1.643 0.361,1.643 0.674,1.879 0.78,2.231 0.91,2.665 1.367,2.913 1.802,2.782 2.237,2.652 2.483,2.194 2.353,1.759 2.038,0.707 1.092,0 0,0"
             style="fill:#989898;fill-opacity:1;fill-rule:nonzero;stroke:none"
             id="path3420"
             inkscape:connector-curvature="0" /></g><g
           id="g3422"
           transform="translate(21.7128,13.3072)"><path
             d="m 0,0 -13.425,0 c -0.697,0 -1.177,-0.705 -0.918,-1.352 1.209,-3.029 4.169,-5.169 7.63,-5.169 3.461,0 6.421,2.14 7.631,5.169 C 1.176,-0.705 0.697,0 0,0 m -1.048,-1.643 c -1.168,-1.993 -3.298,-3.236 -5.665,-3.236 -2.366,0 -4.497,1.243 -5.665,3.236 l 11.33,0"
             style="fill:#989898;fill-opacity:1;fill-rule:nonzero;stroke:none"
             id="path3424"
             inkscape:connector-curvature="0" /></g></g></g></g></svg>