<?xml version="1.0" encoding="UTF-8" standalone="no"?>
<!-- Created with Inkscape (http://www.inkscape.org/) -->

<svg
   xmlns:dc="http://purl.org/dc/elements/1.1/"
   xmlns:cc="http://creativecommons.org/ns#"
   xmlns:rdf="http://www.w3.org/1999/02/22-rdf-syntax-ns#"
   xmlns:svg="http://www.w3.org/2000/svg"
   xmlns="http://www.w3.org/2000/svg"
   xmlns:sodipodi="http://sodipodi.sourceforge.net/DTD/sodipodi-0.dtd"
   xmlns:inkscape="http://www.inkscape.org/namespaces/inkscape"
   id="svg3748"
   version="1.1"
   inkscape:version="0.91 r13725"
   xml:space="preserve"
   width="37.5"
   height="37.5"
   viewBox="0 0 37.5 37.5"
   sodipodi:docname="icon-agreeableness.svg"><metadata
     id="metadata3754"><rdf:RDF><cc:Work
         rdf:about=""><dc:format>image/svg+xml</dc:format><dc:type
           rdf:resource="http://purl.org/dc/dcmitype/StillImage" /><dc:title></dc:title></cc:Work></rdf:RDF></metadata><defs
     id="defs3752"><clipPath
       clipPathUnits="userSpaceOnUse"
       id="clipPath3762"><path
         d="M 0,30 30,30 30,0 0,0 0,30 Z"
         id="path3764"
         inkscape:connector-curvature="0" /></clipPath></defs><sodipodi:namedview
     pagecolor="#ffffff"
     bordercolor="#666666"
     borderopacity="1"
     objecttolerance="10"
     gridtolerance="10"
     guidetolerance="10"
     inkscape:pageopacity="0"
     inkscape:pageshadow="2"
     inkscape:window-width="711"
     inkscape:window-height="480"
     id="namedview3750"
     showgrid="false"
     inkscape:zoom="6.2933333"
     inkscape:cx="18.75"
     inkscape:cy="18.75"
     inkscape:window-x="0"
     inkscape:window-y="22"
     inkscape:window-maximized="0"
     inkscape:current-layer="g3756" /><g
     id="g3756"
     inkscape:groupmode="layer"
     inkscape:label="icon-agreeableness"
     transform="matrix(1.25,0,0,-1.25,0,37.5)"><g
       id="g3758"><g
         id="g3760"
         clip-path="url(#clipPath3762)"><g
           id="g3766"
           transform="translate(15,26.5)"><path
             d="m 0,0 c -6.341,0 -11.5,-5.159 -11.5,-11.5 0,-6.341 5.159,-11.5 11.5,-11.5 6.341,0 11.5,5.159 11.5,11.5 C 11.5,-5.159 6.341,0 0,0 m 0,-1.643 c 5.444,0 9.857,-4.413 9.857,-9.857 0,-5.444 -4.413,-9.857 -9.857,-9.857 -5.444,0 -9.857,4.413 -9.857,9.857 0,5.444 4.413,9.857 9.857,9.857"
             style="fill:#adc836;fill-opacity:1;fill-rule:nonzero;stroke:none"
             id="path3768"
             inkscape:connector-curvature="0" /></g><g
           id="g3770"
           transform="translate(11.0578,15.6332)"><path
             d="m 0,0 c -1.092,0 -2.038,0.707 -2.354,1.759 -0.13,0.435 0.117,0.893 0.551,1.023 C -1.369,2.913 -0.91,2.665 -0.78,2.231 -0.675,1.879 -0.361,1.643 0,1.643 0.361,1.643 0.674,1.879 0.78,2.231 0.91,2.665 1.368,2.913 1.803,2.782 2.237,2.652 2.484,2.194 2.354,1.759 2.038,0.707 1.092,0 0,0"
             style="fill:#adc836;fill-opacity:1;fill-rule:nonzero;stroke:none"
             id="path3772"
             inkscape:connector-curvature="0" /></g><g
           id="g3774"
           transform="translate(18.9422,15.6332)"><path
             d="m 0,0 c -1.092,0 -2.038,0.707 -2.354,1.759 -0.13,0.435 0.117,0.893 0.551,1.023 C -1.369,2.913 -0.91,2.665 -0.78,2.231 -0.675,1.879 -0.361,1.643 0,1.643 0.361,1.643 0.674,1.879 0.78,2.231 0.91,2.665 1.367,2.913 1.802,2.782 2.237,2.652 2.483,2.194 2.353,1.759 2.038,0.707 1.092,0 0,0"
             style="fill:#adc836;fill-opacity:1;fill-rule:nonzero;stroke:none"
             id="path3776"
             inkscape:connector-curvature="0" /></g><g
           id="g3778"
           transform="translate(15,8.4848)"><path
             d="m 0,0 c -2.067,0 -4.059,0.753 -5.608,2.121 -0.34,0.301 -0.373,0.819 -0.073,1.159 0.3,0.341 0.82,0.373 1.16,0.073 1.249,-1.103 2.854,-1.71 4.521,-1.71 1.667,0 3.272,0.607 4.521,1.71 0.34,0.3 0.859,0.268 1.16,-0.073 C 5.981,2.94 5.948,2.422 5.608,2.121 4.059,0.753 2.067,0 0,0"
             style="fill:#adc836;fill-opacity:1;fill-rule:nonzero;stroke:none"
             id="path3780"
             inkscape:connector-curvature="0" /></g></g></g></g></svg>