<?xml version="1.0" encoding="UTF-8" standalone="no"?>
<svg
   xmlns:dc="http://purl.org/dc/elements/1.1/"
   xmlns:cc="http://creativecommons.org/ns#"
   xmlns:rdf="http://www.w3.org/1999/02/22-rdf-syntax-ns#"
   xmlns:svg="http://www.w3.org/2000/svg"
   xmlns="http://www.w3.org/2000/svg"
   xmlns:sodipodi="http://sodipodi.sourceforge.net/DTD/sodipodi-0.dtd"
   xmlns:inkscape="http://www.inkscape.org/namespaces/inkscape"
   id="svg2"
   version="1.1"
   xml:space="preserve"
   width="38.288258"
   height="39.653858"
   viewBox="0 0 38.288258 39.653858"
   inkscape:version="0.91 r13725"
   sodipodi:docname="up.svg"><sodipodi:namedview
     pagecolor="#ffffff"
     bordercolor="#666666"
     borderopacity="1"
     objecttolerance="10"
     gridtolerance="10"
     guidetolerance="10"
     inkscape:pageopacity="0"
     inkscape:pageshadow="2"
     inkscape:window-width="1284"
     inkscape:window-height="820"
     id="namedview4640"
     showgrid="false"
     inkscape:zoom="1.7062791"
     inkscape:cx="-189.80238"
     inkscape:cy="-107.83127"
     inkscape:window-x="245"
     inkscape:window-y="132"
     inkscape:window-maximized="0"
     inkscape:current-layer="g40"
     fit-margin-top="1"
     fit-margin-left="1"
     fit-margin-right="1"
     fit-margin-bottom="1" /><metadata
     id="metadata8"><rdf:RDF><cc:Work
         rdf:about=""><dc:format>image/svg+xml</dc:format><dc:type
           rdf:resource="http://purl.org/dc/dcmitype/StillImage" /><dc:title></dc:title></cc:Work></rdf:RDF></metadata><defs
     id="defs6"><clipPath
       clipPathUnits="userSpaceOnUse"
       id="clipPath16"><path
         d="m 0,2750 275,0 L 275,0 0,0 0,2750 Z"
         id="path18"
         inkscape:connector-curvature="0" /></clipPath></defs><g
     transform="matrix(1.2538759,0,0,-1.2505139,26.400498,32.868561)"
     id="g40"><path
       id="path42"
       style="fill:#5797e5;fill-opacity:1;fill-rule:evenodd;stroke:none"
       d="m 0,0 c -5.536,-3.325 -12.615,-1.352 -15.811,4.408 -3.196,5.76 -1.299,13.124 4.237,16.45 C -6.038,24.183 1.04,22.21 4.237,16.45 7.433,10.69 5.536,3.326 0,0 m 6.742,17.956 c -3.995,7.199 -12.843,9.666 -19.763,5.509 -6.92,-4.157 -9.291,-13.363 -5.296,-20.562 3.996,-7.2 12.844,-9.667 19.764,-5.51 6.92,4.157 9.291,13.363 5.295,20.563 M -4.764,16.138 c -0.283,0.294 -0.653,0.441 -1.023,0.441 -0.37,0 -0.741,-0.147 -1.023,-0.441 l 0,0 -4.092,-4.257 c -0.565,-0.588 -0.565,-1.541 0,-2.129 0.565,-0.588 1.481,-0.588 2.046,0 l 1.622,1.688 0,-6.28 c 0,-0.831 0.648,-1.505 1.447,-1.505 0.799,0 1.447,0.674 1.447,1.505 l 0,6.28 1.622,-1.688 c 0.565,-0.588 1.481,-0.588 2.046,0 0.565,0.588 0.565,1.541 0,2.129 l -4.092,4.257 z"
       inkscape:connector-curvature="0" /></g></svg>