<?xml version="1.0" encoding="UTF-8" standalone="no"?>
<!-- Created with Inkscape (http://www.inkscape.org/) -->

<svg
   xmlns:dc="http://purl.org/dc/elements/1.1/"
   xmlns:cc="http://creativecommons.org/ns#"
   xmlns:rdf="http://www.w3.org/1999/02/22-rdf-syntax-ns#"
   xmlns:svg="http://www.w3.org/2000/svg"
   xmlns="http://www.w3.org/2000/svg"
   xmlns:sodipodi="http://sodipodi.sourceforge.net/DTD/sodipodi-0.dtd"
   xmlns:inkscape="http://www.inkscape.org/namespaces/inkscape"
   id="svg3362"
   version="1.1"
   inkscape:version="0.91 r13725"
   xml:space="preserve"
   width="27.5"
   height="27.5"
   viewBox="0 0 27.5 27.5"
   sodipodi:docname="dizmoIcon-ToneAnalyser-light.svg"><metadata
     id="metadata3368"><rdf:RDF><cc:Work
         rdf:about=""><dc:format>image/svg+xml</dc:format><dc:type
           rdf:resource="http://purl.org/dc/dcmitype/StillImage" /><dc:title></dc:title></cc:Work></rdf:RDF></metadata><defs
     id="defs3366"><clipPath
       clipPathUnits="userSpaceOnUse"
       id="clipPath3376"><path
         d="M 0,22 22,22 22,0 0,0 0,22 Z"
         id="path3378"
         inkscape:connector-curvature="0" /></clipPath></defs><sodipodi:namedview
     pagecolor="#ffffff"
     bordercolor="#666666"
     borderopacity="1"
     objecttolerance="10"
     gridtolerance="10"
     guidetolerance="10"
     inkscape:pageopacity="0"
     inkscape:pageshadow="2"
     inkscape:window-width="711"
     inkscape:window-height="480"
     id="namedview3364"
     showgrid="false"
     inkscape:zoom="8.5818182"
     inkscape:cx="13.75"
     inkscape:cy="13.75"
     inkscape:window-x="0"
     inkscape:window-y="22"
     inkscape:window-maximized="0"
     inkscape:current-layer="g3370" /><g
     id="g3370"
     inkscape:groupmode="layer"
     inkscape:label="dizmoIcon-ToneAnalyser-light"
     transform="matrix(1.25,0,0,-1.25,0,27.5)"><g
       id="g3372"><g
         id="g3374"
         clip-path="url(#clipPath3376)"><g
           id="g3380"
           transform="translate(21.6835,3.5695)"><path
             d="m 0,0 0,14.86 c 0,2.804 -2.464,3.143 -3.059,3.184 l 0,0.006 -0.13,0 -14.988,0 -0.131,0 0,-0.006 c -0.595,-0.041 -3.059,-0.38 -3.059,-3.184 l 0,-14.86 c 0,-2.804 2.464,-3.143 3.059,-3.184 l 0,-0.005 0.131,0 14.988,0 0.13,0 0,0.005 C -2.464,-3.143 0,-2.804 0,0"
             style="fill:#5797e5;fill-opacity:1;fill-rule:nonzero;stroke:none"
             id="path3382"
             inkscape:connector-curvature="0" /></g><g
           id="g3384"
           transform="translate(3.5762,0.9985)"><path
             d="m 0,0 14.848,0 c 0.011,0.001 0.023,0.003 0.035,0.003 0.764,0.054 2.542,0.418 2.542,2.652 l 0,14.692 c 0,2.234 -1.778,2.598 -2.542,2.652 -0.014,0.001 -0.028,0.002 -0.042,0.004 l -14.835,0 C -0.007,20.001 -0.021,20 -0.035,19.999 -0.8,19.945 -2.578,19.581 -2.578,17.347 l 0,-14.692 C -2.578,0.421 -0.8,0.057 -0.035,0.003 -0.023,0.003 -0.012,0.001 0,0 m 14.917,-0.997 -14.987,0 c -0.037,0 -0.073,0.004 -0.108,0.012 -1.656,0.14 -3.397,1.166 -3.397,3.64 l 0,14.692 c 0,2.472 1.738,3.498 3.392,3.64 C -0.146,20.996 -0.108,21 -0.07,21 l 14.987,0 c 0.04,0 0.079,-0.005 0.115,-0.013 1.655,-0.143 3.39,-1.17 3.39,-3.64 l 0,-14.692 c 0,-2.475 -1.742,-3.5 -3.398,-3.64 -0.034,-0.008 -0.07,-0.012 -0.107,-0.012"
             style="fill:#424142;fill-opacity:1;fill-rule:nonzero;stroke:none"
             id="path3386"
             inkscape:connector-curvature="0" /></g><g
           id="g3388"
           transform="translate(13.4467,13.6495)"><path
             d="m 0,0 c -0.028,0 -0.057,0.002 -0.085,0.007 -0.251,0.047 -0.417,0.288 -0.371,0.539 0.102,0.559 0.621,1.617 1.847,1.617 1.197,0 1.808,-1.027 1.964,-1.57 C 3.426,0.347 3.284,0.091 3.039,0.021 2.789,-0.049 2.537,0.092 2.467,0.337 2.456,0.371 2.186,1.238 1.391,1.238 0.621,1.238 0.46,0.414 0.454,0.379 0.413,0.156 0.219,0 0,0"
             style="fill:#ffffff;fill-opacity:1;fill-rule:nonzero;stroke:none"
             id="path3390"
             inkscape:connector-curvature="0" /></g><g
           id="g3392"
           transform="translate(16.5414,18.4347)"><path
             d="M 0,0 -3.547,0 C -4.949,0 -6.09,-1.141 -6.09,-2.543 l 0,-1.546 c 0,-0.212 0.032,-0.421 0.084,-0.625 l -4.846,0 c -1.53,0 -2.774,-1.244 -2.774,-2.774 l 0,-2.893 c 0,-1.531 1.244,-2.776 2.774,-2.776 l 1.01,0 c 0.086,0 0.317,-0.231 0.455,-0.493 l 1.066,-2.027 c 0.083,-0.158 0.243,-0.248 0.41,-0.248 0.072,0 0.146,0.017 0.215,0.053 0.226,0.12 0.313,0.399 0.194,0.624 l -1.065,2.026 c -0.086,0.165 -0.55,0.991 -1.275,0.991 l -1.01,0 c -1.02,0 -1.85,0.829 -1.85,1.85 l 0,2.893 c 0,1.02 0.83,1.849 1.85,1.849 l 5.88,0 c 1.02,0 1.849,-0.829 1.849,-1.849 l 0,-2.893 c 0,-1.021 -0.829,-1.85 -1.849,-1.85 l -2.557,0 c -0.255,0 -0.462,-0.207 -0.462,-0.463 0,-0.256 0.207,-0.463 0.462,-0.463 l 2.557,0 c 1.53,0 2.775,1.245 2.775,2.776 l 0,2.893 c 0,0.3 -0.06,0.584 -0.149,0.855 l 0.797,0 c 0.256,0 0.463,0.207 0.463,0.463 0,0.255 -0.207,0.462 -0.463,0.462 l -1.313,0 c -0.509,0.603 -1.261,0.994 -2.11,0.994 l -0.051,0 c -0.085,0.198 -0.142,0.407 -0.142,0.625 l 0,1.546 c 0,0.892 0.726,1.618 1.618,1.618 l 3.547,0 c 0.893,0 1.618,-0.726 1.618,-1.618 l 0,-1.546 c 0,-0.889 -0.762,-1.605 -1.393,-1.605 -0.496,0 -0.67,-0.209 -0.95,-0.688 -0.38,-0.652 -0.937,-1.558 -0.938,-1.559 l 0.004,-0.003 c -0.044,-0.071 -0.076,-0.151 -0.076,-0.241 0,-0.259 0.21,-0.468 0.469,-0.468 0.197,0 0.365,0.123 0.434,0.296 0.132,0.216 0.58,0.952 0.906,1.508 0.115,0.198 0.158,0.255 0.151,0.23 1.094,0 2.319,1.082 2.319,2.53 l 0,1.546 C 2.544,-1.141 1.402,0 0,0"
             style="fill:#ffffff;fill-opacity:1;fill-rule:nonzero;stroke:none"
             id="path3394"
             inkscape:connector-curvature="0" /></g><g
           id="g3396"
           transform="translate(10.9389,9.5123)"><path
             d="M 0,0 C 0.103,0.233 -0.003,0.505 -0.237,0.608 -0.47,0.71 -0.743,0.605 -0.846,0.372 -1.008,0.009 -1.585,-0.934 -2.309,-0.934 c -0.852,0 -1.418,1.286 -1.423,1.298 -0.099,0.235 -0.371,0.348 -0.605,0.247 -0.235,-0.098 -0.347,-0.368 -0.249,-0.603 0.032,-0.076 0.794,-1.867 2.277,-1.867 1.476,0 2.276,1.783 2.309,1.859"
             style="fill:#ffffff;fill-opacity:1;fill-rule:nonzero;stroke:none"
             id="path3398"
             inkscape:connector-curvature="0" /></g></g></g></g></svg>
