<?xml version="1.0" encoding="UTF-8" standalone="no"?>
<!-- Created with Inkscape (http://www.inkscape.org/) -->
<svg xmlns:dc="http://purl.org/dc/elements/1.1/" xmlns:cc="http://creativecommons.org/ns#" xmlns:rdf="http://www.w3.org/1999/02/22-rdf-syntax-ns#" xmlns:svg="http://www.w3.org/2000/svg" xmlns="http://www.w3.org/2000/svg" xmlns:sodipodi="http://sodipodi.sourceforge.net/DTD/sodipodi-0.dtd" xmlns:inkscape="http://www.inkscape.org/namespaces/inkscape" id="svg3033" version="1.1" inkscape:version="0.48.4 r9939" width="30.015432" height="30.015432" xml:space="preserve" sodipodi:docname="front_checked.svg"><metadata id="metadata3039"><rdf:RDF><cc:Work rdf:about=""><dc:format>image/svg+xml</dc:format><dc:type rdf:resource="http://purl.org/dc/dcmitype/StillImage"/><dc:title/></cc:Work></rdf:RDF></metadata><defs id="defs3037"><clipPath clipPathUnits="userSpaceOnUse" id="clipPath3047"><path d="M 0,30 30,30 30,0 0,0 0,30 z" id="path3049" inkscape:connector-curvature="0"/></clipPath></defs><sodipodi:namedview pagecolor="#ffffff" bordercolor="#666666" borderopacity="1" objecttolerance="10" gridtolerance="10" guidetolerance="10" inkscape:pageopacity="0" inkscape:pageshadow="2" inkscape:window-width="1535" inkscape:window-height="876" id="namedview3035" showgrid="false" inkscape:zoom="6.2933333" inkscape:cx="15.1875" inkscape:cy="15.195216" inkscape:window-x="65" inkscape:window-y="24" inkscape:window-maximized="1" inkscape:current-layer="g3041" fit-margin-top="0" fit-margin-left="0" fit-margin-right="0" fit-margin-bottom="0"/><g id="g3041" inkscape:groupmode="layer" inkscape:label="radiobutton-checked-light" transform="matrix(1.25,0,0,-1.25,-3.5625,33.570216)"><g id="g3043" transform="matrix(0.98765432,0,0,0.98765432,0.03518519,0.03518519)"><g id="g3045" clip-path="url(#clipPath3047)"><g id="g3051" transform="translate(3.35,15)"><path d="M 0,0 C 0,6.434 5.216,11.65 11.65,11.65 18.084,11.65 23.3,6.434 23.3,0 23.3,-6.434 18.084,-11.65 11.65,-11.65 5.216,-11.65 0,-6.434 0,0" style="fill:transparent;fill-opacity:1;fill-rule:nonzero;stroke:none" id="path3053" inkscape:connector-curvature="0"/></g><g id="g3055" transform="translate(3.35,15)"><path d="M 0,0 C 0,6.434 5.216,11.65 11.65,11.65 18.084,11.65 23.3,6.434 23.3,0 23.3,-6.434 18.084,-11.65 11.65,-11.65 5.216,-11.65 0,-6.434 0,0 z" style="fill:none;stroke:rgb(87,151,229);stroke-width:1;stroke-linecap:butt;stroke-linejoin:miter;stroke-miterlimit:10;stroke-opacity:1;stroke-dasharray:none" id="path3057" inkscape:connector-curvature="0"/></g><g id="g3059" transform="translate(8,15)"><path d="M 0,0 C 0,3.866 3.134,7 7,7 10.866,7 14,3.866 14,0 14,-3.866 10.866,-7 7,-7 3.134,-7 0,-3.866 0,0" style="fill:rgb(87,151,229);fill-opacity:1;fill-rule:nonzero;stroke:none" id="path3061" inkscape:connector-curvature="0"/></g></g></g></g></svg>
